<?xml version="1.0" standalone="no"?>
<!DOCTYPE svg PUBLIC "-//W3C//DTD SVG 20010904//EN"
 "http://www.w3.org/TR/2001/REC-SVG-20010904/DTD/svg10.dtd">
<svg version="1.0" xmlns="http://www.w3.org/2000/svg"
 width="512.000000pt" height="512.000000pt" viewBox="0 0 512.000000 512.000000"
 preserveAspectRatio="xMidYMid meet">
<metadata>
Created by potrace 1.14, written by Peter Selinger 2001-2017
</metadata>
<g transform="translate(0.000000,512.000000) scale(0.100000,-0.100000)"
fill="#000000" stroke="none">
<path d="M2665 5096 c-236 -81 -431 -210 -547 -364 -86 -113 -144 -258 -150
-374 -3 -44 -5 -48 -28 -48 -116 0 -351 -9 -375 -15 -257 -55 -444 -231 -514
-484 -16 -57 -20 -96 -17 -179 2 -59 6 -118 9 -131 14 -54 31 -99 59 -153 15
-32 25 -58 21 -59 -162 -17 -311 -83 -413 -181 -99 -96 -178 -229 -195 -330
-3 -18 -8 -40 -10 -48 -8 -27 -9 -154 -1 -200 10 -64 45 -168 73 -217 l24 -43
-53 -1 c-153 -1 -197 -19 -233 -95 -25 -52 -23 -60 135 -624 21 -74 53 -189
70 -255 31 -114 73 -268 140 -505 16 -58 36 -130 44 -160 8 -30 35 -131 61
-225 26 -93 48 -177 50 -185 20 -80 37 -127 56 -154 45 -66 -85 -61 1679 -64
883 -1 1615 0 1627 3 31 7 83 54 95 84 14 35 40 127 260 926 104 380 212 771
239 870 28 99 52 196 55 215 7 48 -18 103 -63 137 -33 25 -45 28 -134 31 l-97
4 34 72 c148 312 27 690 -277 863 -68 39 -170 69 -281 82 -4 1 9 35 28 76 46
100 58 159 58 290 0 125 -16 190 -71 296 -113 219 -345 359 -593 359 -79 0
-236 28 -292 52 -74 31 -146 127 -181 238 -29 92 -30 100 -31 260 -2 177 -9
201 -74 238 -51 28 -99 28 -187 -2z"/>
</g>
</svg>
